<?xml version="1.0" encoding="utf-8"?>
<!-- Generator: Adobe Illustrator 19.2.1, SVG Export Plug-In . SVG Version: 6.00 Build 0)  -->
<svg version="1.1" id="Lager_1" xmlns="http://www.w3.org/2000/svg" xmlns:xlink="http://www.w3.org/1999/xlink" x="0px" y="0px"
	 viewBox="0 0 200 98" style="enable-background:new 0 0 200 98;" xml:space="preserve">
<style type="text/css">
	.st0{fill:#B0CB13;}
	.st1{fill:#FFFFFF;}
	.st2{fill:#1E9DD9;}
	.st3{fill:#FFE680;}
</style>
<g>
	<path class="st0" d="M39.7,60.9c10,0,18.1,8.1,18.1,18.1c0,10-8.1,18.1-18.1,18.1c-10,0-18.1-8.1-18.1-18.1
		C21.6,69,29.7,60.9,39.7,60.9z"/>
	<path class="st1" d="M30.6,79c0,5,4.1,9.1,9.1,9.1c5,0,9.1-4.1,9.1-9.1c0-5-4.1-9.1-9.1-9.1C34.7,69.9,30.6,74,30.6,79z"/>
	<path class="st0" d="M169.1,60.9c10,0,18.1,8.1,18.1,18.1c0,10-8.1,18.1-18.1,18.1c-10,0-18.1-8.1-18.1-18.1
		C151,69,159.1,60.9,169.1,60.9z"/>
	<path class="st1" d="M160.1,79c0,5,4.1,9.1,9.1,9.1c5,0,9.1-4.1,9.1-9.1c0-5-4.1-9.1-9.1-9.1C164.1,69.9,160.1,74,160.1,79z"/>
	<g>
		<path class="st2" d="M12.9,42.7c6.2-7.4,9.8-11.3,18.4-20.2C46.1,7,49.8,1.5,72.4,1.5c21.8,0,26.7,0,31.7,0
			c15.1,0,22.3,5.6,29.8,13.1c4.9,4.9,7.9,7.9,12,12c4,4,6.4,5.1,15.7,5.9c17.8,1.4,26.8,5.6,32.3,14c-2.4,1.7-4.1,4.5-4.1,7.8
			c0,5,3.9,9.1,8.8,9.4c0,3.4-0.4,6.8-1.4,9.7c-0.8,2.5-2.3,3.8-2.3,3.8c-1.9,1.8-3.9,0.7-4-1.2c0,0,0,0-0.3-1.4
			c-2.1-10-10.9-17.6-21.6-17.6c-12.2,0-22.1,9.9-22.1,22.1c0,2.7-1.2,3.6-4.1,3.6h-77c-2.4,0-3.8-0.6-4-3.8c0,0-0.3-2.8-0.5-4.1
			c-2-10.1-10.9-17.8-21.6-17.8c-10.5,0-19.3,7.4-21.5,17.3c-0.3,1.5-0.4,3.2-0.4,3.2c-0.2,2.4-2,3.1-4.2,2.4c0,0-3.7-1-6.7-3.9
			c-3.3-3.2-4.4-7.7-4.4-12.1C2.4,54,7,49.6,12.9,42.7z"/>
		<path class="st3" d="M189.9,54.2c0-3.2,1.6-6.1,4.1-7.8c1.1,1.7,2,3.5,2.8,5.5c1.1,2.7,1.9,7.1,1.9,11.7
			C193.7,63.3,189.9,59.2,189.9,54.2z"/>
	</g>
	<path class="st1" d="M89.2,15.7c0-2.4,2-4.5,4.5-4.5l16.2,0c5.4,0,9.6,2.2,12.7,5.3c0,0,8.2,8.9,11.1,12.3c2.9,3.3,2.1,7.8-2.7,7.8
		c-5.8,0-37.4,0-37.4,0c-2.4,0-4.5-2-4.5-4.5L89.2,15.7L89.2,15.7z"/>
	<path class="st1" d="M80.2,16.6c0-2.5-2-4.8-4.4-5.1c0,0-8.7-1.4-18.3,3.1c-11.6,5.4-13.7,17.7-13.7,17.7c-0.5,2.4,1,4.3,3.5,4.3
		l28.5,0c2.4,0,4.5-2,4.5-4.4L80.2,16.6L80.2,16.6z"/>
</g>
</svg>
