<?xml version="1.0" encoding="utf-8"?>
<!-- Generator: Adobe Illustrator 19.2.1, SVG Export Plug-In . SVG Version: 6.00 Build 0)  -->
<svg version="1.1" id="Lager_1" xmlns="http://www.w3.org/2000/svg" xmlns:xlink="http://www.w3.org/1999/xlink" x="0px" y="0px"
	 viewBox="0 0 800 800" enable-background="new 0 0 800 800" xml:space="preserve">
<g id="Lager_8">
	<g>
		<g>
			<path fill="#FBB814" d="M552.9,262.9c22.2-37.6,43.2-80.5,92-80.5c57.2,0,63.8,22.6,81.6,43.5c9.8,11.5,21.5,15.6,41.6,18.9
				c23.7,3.9,28.6,22.4,19.6,43.1c-9.2,20.9-32.4,32.9-62,32.9c-17.1,0-34.7,4.3-48.7,21.7L549.8,268
				C550.9,266.3,551.9,264.6,552.9,262.9z"/>
			<path fill="#FBB814" d="M84.6,250.3c32.5-3.4,35.3,22.7,10.6,33.5c-33.4,14.4-39.5,38.3-39.5,58.7c0,20.4,14.3,49.8,53.4,49.8
				c52.2,0,68.4-47.8,183.8-47.8c62.4,0,77.7,0,140,0c42.6,0,68.5-14.5,87.8-35.2l0,0l135,78.9c0.2,0.1,0.4,0.2,0.6,0.3
				c-12.5,39.3-28.7,88.3-49.6,114.8c-26.4,33.4-41.9,45.8-47,86.3c-5.2,40.5-3.8,47.8-3.9,65c-0.1,11.3,3,18,13.4,24.2
				c7.7,4.5,15.3,13.9,10.9,27.9c-3.4,10.9-13.6,15.6-26.6,15.6c-7,0-8.3,0-10.8,0c-23.8,0-34.8-15-38.4-42.2
				c-5-38.3-7.9-69.5-12.8-94.2c-4.9-24.6-20-38.2-65.4-38.2c-51.5,0-70.8,0-98,0c-33.2,0-60.5,15.9-77.3,46.1
				c-17.7,31.8-23.4,44.1-23.4,67.7c0,10.6,4.4,14.1,9.1,18.6c4.8,4.5,9.9,11.1,9.4,20.6c-0.5,9.1-7.9,21.5-20.7,21.5
				c-5.8,0-10.4,0-12.7,0c-27.1,0-34.7-27.4-34.7-50.7c0-12.7,1.4-31.3,2.4-41.6c1.6-16.2,2.5-32.1-4.2-56.4
				c-9.4-34.2-14.2-51.6-19.6-72.6c-6.8-26.3-7.4-42.5-50.1-49.8c-52.8-9-98.2-38.9-98.2-107C8,287.2,44.4,254.5,84.6,250.3z"/>
		</g>
		<path fill="#E50C7E" d="M520.6,309.3l135,78.9c1.3,0.8,3,0.3,3.8-1l4.3-7.4c2.5,4.9,7.4,8.4,13.3,8.8c0.3,0,0.7,0,1,0l1.4,5.4
			c-0.9,0.1-1.8,0.2-2.7,0.3c-2.1,0.2-3.6,0-4.8-0.5c-1.5-0.6-3.2-2.6-3.5-2.9c-1.4-1.3-3.4-2-5.4-1.8c-3.8,0.4-6.5,3.8-6.1,7.6
			c0.2,1.6,0.9,3,1.9,4c0.6,0.6,1.1,1.4,0.5,2.6c-0.8,1.4-1.4,2.9-1.2,4.6c0.4,3.8,3.8,6.5,7.5,6.1c2.2-0.2,4-1.5,5.1-3.2
			c0.7-1.2,2.7-4.3,7.1-4.8c4.4-0.5,7.1-0.8,7.1-0.8s2.8-0.3,7.1-0.8c4.4-0.5,7,2.2,7.9,3.2c1.4,1.5,3.5,2.3,5.7,2.1
			c3.8-0.4,6.5-3.8,6.1-7.6c-0.2-1.7-1.1-3.1-2.1-4.3c-0.9-1-0.5-1.9-0.1-2.6c0.8-1.3,1.2-2.8,1-4.4c-0.4-3.8-3.8-6.5-7.5-6.1
			c-2.1,0.2-3.8,1.3-4.9,2.9c-0.2,0.3-1.4,2.7-2.8,3.6c-1,0.7-2.5,1.3-4.5,1.5c-0.9,0.1-1.8,0.2-2.7,0.3l-1.7-6.7
			c4.4-2.6,7.5-7.3,7.9-12.9c0.7-9-6.1-16.8-15.1-17.4c-0.6,0-1.1,0-1.7,0l4.4-7.5c0.8-1.3,0.3-3.1-1-3.8l-135-78.9
			c-1.3-0.8-3.1-0.3-3.8,1l-22.6,38.6C518.8,306.8,519.3,308.5,520.6,309.3z M671.8,371.9c0.3-3.5,3.3-6.2,6.9-6
			c3.5,0.2,6.2,3.3,6,6.9c-0.1,1-0.4,2-0.9,2.8l-0.7-2.8c-0.6-2.3-3-3.7-5.3-3.1c-2.3,0.6-3.7,3-3.1,5.4l0.8,3.1
			C673.1,376.9,671.6,374.5,671.8,371.9z"/>
		<path fill="#FFE680" d="M672.1,242.8c0,15.5,5.2,46-20.9,52.5c-25,6.3-43.9-11.6-43.2-53.2c0.3-20.5,14.2-35.9,35-34.9
			C655.6,207.9,672,213.4,672.1,242.8z"/>
		<path fill="#FFE680" d="M695.8,242.8c0,6.9,5.6,12.4,12.4,12.4c6.9,0,12.4-5.6,12.4-12.4c0-6.9-5.6-12.4-12.4-12.4
			C701.4,230.4,695.8,235.9,695.8,242.8z"/>
	</g>
</g>
</svg>
