<?xml version="1.0" encoding="utf-8"?>
<!-- Generator: Adobe Illustrator 19.2.1, SVG Export Plug-In . SVG Version: 6.00 Build 0)  -->
<svg version="1.1" id="Lager_1" xmlns="http://www.w3.org/2000/svg" xmlns:xlink="http://www.w3.org/1999/xlink" x="0px" y="0px"
	 viewBox="0 0 800 800" enable-background="new 0 0 800 800" xml:space="preserve">
<g id="Lager_10">
	<g>
		<g>
			<g>
				<path fill="#9A4A17" d="M656.8,485.1c-8.5,8.6-20.2,20.4-36.4,36.6c-3.6,3.6-7.4,2.3-7.4-2.7c0-4.1,0-123.8,0-169
					c-8.8-4.2-17.9-10.4-17.9-10.4c-2-1.4-4.7-0.8-6,1.3c0,0-6.6,10.6-12.3,16.7c-0.7,0.7-1.4,1.4-2.1,2.1c0,15.5,0,33.1,0,34.5
					c0,4.1-3.4,5.3-6.8,1.9c-6.9-6.9-12.9-12.9-18.4-18.4c-6.8,3.3-14.1,5.9-21.7,7.5c7.6,7.6,16.5,16.6,27.2,27.2
					c11.1,11.1,12.9,21.4,12.9,40.3c0,0,0,262,0,264.4c0,2.4,0.8,4.9,4.5,4.9c3.7,0,37.6,0,40.6,0c3,0,4.4-1.9,4.4-4.9
					c0-3,0-135.7,0-135.7c0-18.9,1.9-29.2,12.9-40.3c18.8-18.8,32.3-32.4,41.9-42.1C666.4,495.2,661.2,490.4,656.8,485.1z"/>
			</g>
			<path fill="#B0CB14" d="M793.9,435.3c0,42.9-34.7,77.6-77.6,77.6c-42.9,0-77.6-34.7-77.6-77.6c0-42.9,34.7-77.6,77.6-77.6
				C759.2,357.7,793.9,392.5,793.9,435.3z"/>
			<path fill="#B0CB14" d="M669.4,171.5c-2.3-0.6-4.5-3.1-4.8-5.5c0,0-2.7-20.4-7.5-31.4c-15.2-35.1-50.2-59.7-90.9-59.7
				c-54.7,0-99.1,44.3-99.1,99.1c0,11.1,4.1,27.4,4.1,27.4c0.6,2.3-0.7,5.2-2.8,6.3c0,0-16.4,8.6-24.7,16.3
				c-18.5,17.2-30,41.8-30,69c0,52.1,42.2,94.4,94.4,94.4c27.1,0,51.5-11.4,68.7-29.7c5.7-6.1,12.3-16.7,12.3-16.7
				c1.3-2,4-2.6,6-1.3c0,0,13.6,9.2,23.5,12.8c10,3.6,20.7,5.5,31.9,5.5c52.1,0,94.4-42.2,94.4-94.3c0-33.9-17.9-63.6-44.6-80.2
				C689.6,176.9,669.4,171.5,669.4,171.5z"/>
		</g>
		<g>
			<g>
				<path fill="#F0A5C3" d="M280,550.6c-10.3-5.2-17.4-15.1-18.1-33.7c-0.1-1.1-0.1-2.2-0.1-3.4c0,0-18.2,3.5-31.9-10.2
					c-11.4-11.4-9.8-20.5-15.2-32.8c-6.8-15.2-20.9-19.8-31.8-19.7c0,0,1-12.1-4.4-22.2c-6.7-12.3-19.5-12.6-23.7-12.6
					c-4.2,0-16.2,1.5-23.7,13.7c-6,9.7-4.4,21-4.4,21c-10.8-0.1-25,4.5-31.7,19.7c-5.5,12.3-3.9,21.4-15.3,32.8
					c-13.7,13.7-31.9,10.2-31.9,10.2c0,17.8-5.3,28.3-13.7,34.3v8.1v158c0,6,2.7,8.2,8.3,8.2h238.2V550.8L280,550.6z M147.9,650
					c0,1.1-0.9,2-2,2h-26.2c-1.1,0-2-0.9-2-2v-26.2c0-1.1,0.9-2.1,2-2.1h26.2c1.1,0,2,0.9,2,2.1V650z M147.9,606.1c0,1.1-0.9,2-2,2
					h-26.2c-1.1,0-2-0.9-2-2v-26.2c0-1.1,0.9-2,2-2h26.2c1.1,0,2,0.9,2,2V606.1z M191.8,650c0,1.1-0.9,2-2,2h-26.2c-1.1,0-2-0.9-2-2
					v-26.2c0-1.1,0.9-2.1,2-2.1h26.2c1.1,0,2,0.9,2,2.1V650z M191.8,606.1c0,1.1-0.9,2-2,2h-26.2c-1.1,0-2-0.9-2-2v-26.2
					c0-1.1,0.9-2,2-2h26.2c1.1,0,2,0.9,2,2V606.1z"/>
			</g>
			<g>
				<path fill="#8B175D" d="M541.5,511.6c0,0,0-0.1-0.1-0.1c-0.1-0.2-0.3-0.4-0.5-0.6c-0.5-0.7-0.9-1.3-1.4-1.9L402.8,348.2
					c-5.2-6.1-16-11.1-24-11.1c0,0-43,0-53.1,0c-8.6,0-10.5-5-10.5-11.8c0-3,0-15,0-27.3c0-0.5,0.1-1.5,1.3-1.5s4.9,0,4.9,0
					c3.5,0,6.4-2.9,6.4-6.4v-25.4c0-3.5-2.9-6.4-6.4-6.4h-81.3c-3.5,0-6.4,2.9-6.4,6.4v25.4c0,3.5,2.9,6.4,6.4,6.4c0,0,4.3,0,5.2,0
					c0.9,0,1.3,1,1.3,1.5c0,12.7,0,25.1,0,28.1c0,6.9-1.5,10.9-11.5,10.9c-10.1,0-65.6,0-65.6,0c-3.7,0-8,1.1-12.1,2.9L309,518
					c1.1,1.1,2.3,2,5.2,2h228.5c0.3-0.9,0.5-1.9,0.5-2.9C543.2,515.1,542.5,513.3,541.5,511.6z"/>
			</g>
			<g>
				<path fill="#E50C7E" d="M314.2,520c-2.9,0-4.2-0.9-5.2-2C307.8,516.8,157.5,340,157.5,340c-4.7,2-9.1,4.9-11.8,8.2l-68.4,80.3
					L9.1,508.7l0,0c-1.8,2.3-3,4.6-3,7.3c0,2.4,0.9,4.6,2.4,6.3l25.5,25.4c8.4-6.1,13.7-16.5,13.7-34.3c0,0,18.2,3.5,31.9-10.2
					c11.4-11.4,9.8-20.5,15.3-32.8c6.7-15.2,20.9-19.8,31.7-19.7c0,0-1.6-11.3,4.4-21c7.6-12.3,19.6-13.7,23.7-13.7
					c4.2,0,17.1,0.3,23.7,12.6c5.4,10.1,4.4,22.2,4.4,22.2c10.8-0.1,25,4.5,31.8,19.7c5.5,12.3,3.9,21.4,15.2,32.8
					c13.7,13.7,31.9,10.2,31.9,10.2c0,20.9,7.3,31.6,18.2,37.1l0.3,0.2v171.3h228.8c4.6,0,7.5-2.7,7.5-8.4c0,0,0-162.8,0-164.4
					c0-1.6,1-2.6,1-2.6l22.9-22.9c1-1.1,1.7-2.4,2.2-3.8C542.7,520,317.1,520,314.2,520z M392.4,650c0,1.1-0.9,2-2,2h-26.2
					c-1.1,0-2-0.9-2-2v-26.2c0-1.1,0.9-2.1,2-2.1h26.2c1.1,0,2,0.9,2,2.1V650z M392.4,606.1c0,1.1-0.9,2-2,2h-26.2c-1.1,0-2-0.9-2-2
					v-26.2c0-1.1,0.9-2,2-2h26.2c1.1,0,2,0.9,2,2V606.1z M436.3,650c0,1.1-0.9,2-2,2h-26.2c-1.1,0-2-0.9-2-2v-26.2
					c0-1.1,0.9-2.1,2-2.1h26.2c1.1,0,2,0.9,2,2.1V650z M436.3,606.1c0,1.1-0.9,2-2,2h-26.2c-1.1,0-2-0.9-2-2v-26.2c0-1.1,0.9-2,2-2
					h26.2c1.1,0,2,0.9,2,2V606.1z"/>
			</g>
		</g>
	</g>
</g>
</svg>
