<?xml version="1.0" encoding="utf-8"?>
<!-- Generator: Adobe Illustrator 19.2.1, SVG Export Plug-In . SVG Version: 6.00 Build 0)  -->
<svg version="1.1" id="Lager_1" xmlns="http://www.w3.org/2000/svg" xmlns:xlink="http://www.w3.org/1999/xlink" x="0px" y="0px"
	 viewBox="0 0 800 800" enable-background="new 0 0 800 800" xml:space="preserve">
<g>
	<g>
		<path fill="#084681" d="M617.6,216.7l-74.2-58.8c-3.4-2.7-9.6-4.8-13.9-4.8H395.2h-30.6h-165c-1.9,0-4.1,0.4-6.4,1.1l82.5,65.4
			c0,0,0.1,0.1,0.1,0.1c2.1,1.6,3.5,0.8,4.7,0c1.1-0.7,74.7-59.2,83.3-66c0.5-0.4,0.9-0.5,1.6,0c0.2,0.1,5,3.9,12.2,9.7l0,0
			l73.4,58.2h170.5C620.4,219.6,619.1,217.9,617.6,216.7z"/>
	</g>
	<path fill="#219DD9" d="M365.3,153.8c-0.7-0.5-1-0.4-1.6,0c-8.6,6.8-82.1,65.3-83.3,66c-1.2,0.7-2.6,1.6-4.7,0
		s-82.6-65.5-82.6-65.5c-2.9,0.9-5.7,2.2-7.5,3.7l-74.2,58.8c-3.4,2.7-6.1,8.4-6.1,12.6V700c0,4.3,2.1,7,6.4,7h331.3
		c2.2,0,5,0,7.8,0V221.6C450.9,221.6,366,154.3,365.3,153.8z"/>
	<path fill="#FFFFFF" d="M205.2,658.9c0,1.3-1.1,2.3-2.3,2.3H154c-1.3,0-2.3-1.1-2.3-2.3v-56.9c0-1.3,1.1-2.3,2.3-2.3h48.9
		c1.3,0,2.3,1,2.3,2.3V658.9z"/>
	<path fill="#FFFFFF" d="M205.2,548.4c0,1.3-1.1,2.4-2.3,2.4H154c-1.3,0-2.3-1.1-2.3-2.4v-56.9c0-1.3,1.1-2.3,2.3-2.3h48.9
		c1.3,0,2.3,1.1,2.3,2.3V548.4z"/>
	<path fill="#FFFFFF" d="M205.2,437.9c0,1.3-1.1,2.3-2.3,2.3H154c-1.3,0-2.3-1.1-2.3-2.3V381c0-1.3,1.1-2.3,2.3-2.3h48.9
		c1.3,0,2.3,1.1,2.3,2.3V437.9z"/>
	<path fill="#FFFFFF" d="M205.2,327.5c0,1.3-1.1,2.3-2.3,2.3H154c-1.3,0-2.3-1-2.3-2.3v-57c0-1.3,1.1-2.3,2.3-2.3h48.9
		c1.3,0,2.3,1.1,2.3,2.3V327.5z"/>
	<path fill="#FFFFFF" d="M305,548.4c0,1.3-1.1,2.4-2.4,2.4h-48.9c-1.3,0-2.3-1.1-2.3-2.4v-56.9c0-1.3,1.1-2.3,2.3-2.3h48.9
		c1.3,0,2.4,1.1,2.4,2.3V548.4z"/>
	<path fill="#FFFFFF" d="M305,437.9c0,1.3-1.1,2.3-2.4,2.3h-48.9c-1.3,0-2.3-1.1-2.3-2.3V381c0-1.3,1.1-2.3,2.3-2.3h48.9
		c1.3,0,2.4,1.1,2.4,2.3V437.9z"/>
	<path fill="#FFFFFF" d="M305,327.5c0,1.3-1.1,2.3-2.4,2.3h-48.9c-1.3,0-2.3-1-2.3-2.3v-57c0-1.3,1.1-2.3,2.3-2.3h48.9
		c1.3,0,2.4,1.1,2.4,2.3V327.5z"/>
	<path fill="#FFFFFF" d="M404.5,658.9c0,1.3-1.1,2.3-2.4,2.3h-48.9c-1.3,0-2.3-1.1-2.3-2.3v-56.9c0-1.3,1-2.3,2.3-2.3h49
		c1.3,0,2.4,1,2.4,2.3L404.5,658.9L404.5,658.9z"/>
	<path fill="#FFFFFF" d="M404.5,548.4c0,1.3-1.1,2.4-2.4,2.4h-48.9c-1.3,0-2.3-1.1-2.3-2.4v-56.9c0-1.3,1-2.3,2.3-2.3h49
		c1.3,0,2.4,1.1,2.4,2.3L404.5,548.4L404.5,548.4z"/>
	<path fill="#FFFFFF" d="M404.5,437.9c0,1.3-1.1,2.3-2.4,2.3h-48.9c-1.3,0-2.3-1.1-2.3-2.3V381c0-1.3,1-2.3,2.3-2.3h49
		c1.3,0,2.4,1.1,2.4,2.3L404.5,437.9L404.5,437.9z"/>
	<path fill="#FFFFFF" d="M404.5,327.5c0,1.3-1.1,2.3-2.4,2.3h-48.9c-1.3,0-2.3-1-2.3-2.3v-57c0-1.3,1-2.3,2.3-2.3h49
		c1.3,0,2.4,1.1,2.4,2.3L404.5,327.5L404.5,327.5z"/>
	<path fill="#084681" d="M307.9,707l-59.6,0V601.8c0-1.3,1.1-2.3,2.3-2.3h54.9c1.3,0,2.4,1,2.4,2.3L307.9,707L307.9,707z"/>
	<path fill="#7EC8F0" d="M621.5,221.6H450.9v485.5c2.8,0,166.3,0,166.3,0c4.3,0,6.4-2.7,6.4-7V229.4
		C623.7,227,622.8,224.1,621.5,221.6z"/>
	<g>
		<path fill="#FFFFFF" d="M510.6,270.5c0-1.3,1.1-2.3,2.3-2.3h48.9c1.3,0,2.3,1.1,2.3,2.3v57c0,1.3-1,2.3-2.3,2.3h-48.9
			c-1.3,0-2.3-1-2.3-2.3L510.6,270.5L510.6,270.5z"/>
		<path fill="#FFFFFF" d="M510.6,381c0-1.3,1.1-2.3,2.3-2.3h48.9c1.3,0,2.3,1.1,2.3,2.3v56.9c0,1.3-1,2.3-2.3,2.3h-48.9
			c-1.3,0-2.3-1.1-2.3-2.3L510.6,381L510.6,381z"/>
		<path fill="#FFFFFF" d="M510.6,491.5c0-1.3,1.1-2.3,2.3-2.3h48.9c1.3,0,2.3,1.1,2.3,2.3v56.9c0,1.3-1,2.4-2.3,2.4h-48.9
			c-1.3,0-2.3-1.1-2.3-2.4L510.6,491.5L510.6,491.5z"/>
		<path fill="#FFFFFF" d="M510.6,601.9c0-1.3,1.1-2.3,2.3-2.3h48.9c1.3,0,2.3,1,2.3,2.3v56.9c0,1.3-1,2.3-2.3,2.3h-48.9
			c-1.3,0-2.3-1-2.3-2.3L510.6,601.9L510.6,601.9z"/>
	</g>
	<path fill="#B0CB14" d="M728.1,593.8c0.5-2.4,0.7-4.8,0.7-7.3c0-20.9-16.9-37.8-37.8-37.8c-7.5,0-14.5,2.2-20.4,6
		c-1.4,0.9-2.6,0.1-3-0.4c-10.7-13.9-27.5-22.9-46.4-22.9c-32.3,0-58.4,26.2-58.4,58.4c0,4,0.4,7.9,1.2,11.7c0.4,2-0.8,2.3-1.5,2.6
		c-20.7,7.2-35.6,26.9-35.6,50c0,29.2,23.7,53,52.9,53c29.2,0,94.9,0,126.9,0c32,0,57.9-25.9,57.9-57.9c0-24.2-14.8-44.9-35.9-53.5
		C728.5,595.5,727.8,595.3,728.1,593.8z"/>
</g>
</svg>
