<?xml version="1.0" encoding="utf-8"?>
<!-- Generator: Adobe Illustrator 19.2.1, SVG Export Plug-In . SVG Version: 6.00 Build 0)  -->
<svg version="1.1" id="Lager_1" xmlns="http://www.w3.org/2000/svg" xmlns:xlink="http://www.w3.org/1999/xlink" x="0px" y="0px"
	 viewBox="0 0 800 800" enable-background="new 0 0 800 800" xml:space="preserve">
<g id="Lager_5_kopia_2">
	<g id="Lager_5_1_">
		<g>
			<path fill="#B0CB14" d="M720,407.4c0,0,0,0-0.1-0.7c-1-8.2-7.5-14.7-15.7-15.7c-0.7-0.1-0.7-0.1-0.7-0.1c-0.8,0-4.1,0-7.3,0
				h-20.6c-19.9,0-27.5-19.7-31.3-27.3c-3.7-7.4-17.8-31.3-20.5-35.6c-10.7-17.4-19.6-29.4-14.1-48.9c5.9-21,22.5-36.2,42.3-41.2
				c3.4-0.9,4.8-1,4.8-1c3.2-0.4,4.7-3,3.3-5.9c0,0-1-2-3-5.5c-11.2-18.6-29.2-33.2-51.8-39.5c-41.7-11.7-84.8,8.5-103.2,46
				c-1.7,3.4-2.3,5.1-2.3,5.1c-1.1,3-4.6,4.7-7.6,3.7c0,0-1.4-0.4-4.9-1.4c-21.8-6.1-44.9-9.7-68.8-10.4c-2.8-0.1-5.6-0.1-8.4-0.1
				c-86.1,0-162.3,37.5-208.7,95c-3,3.7-12.5,17.6-15.9,20.1c-3.7,2.7-6.7,3.3-10,3.3c-2.5,0-4.9-0.4-7.4-0.9
				c-1.4-0.3-1.3-2.5,0.1-3.3c14.4-9,23.4-25.7,22.1-42.8c-1.9-24.8-22.5-42.7-46.9-40.8c-12.4,1-23.4,6.7-31,16.1
				c-6,7.4-9.5,16.8-10.2,27c-0.1,1.7-1.3,4.1-3.4,0.9c-2.5-3.8-5.3-8.1-7.5-13.2c-4.5-10.2-11.6-15.4-19.5-12.9
				c-10,3.1-8.8,17.4-6,25.2c10,28,28.5,39.2,48.8,45.9c2.1,0.7,3.6,2,4.1,2.6c2.3,2.8,4.8,5.4,7.4,7.7c7.6,6.8,19.5,14.2,36.6,17.2
				c2.2,0.4,6.7,1,4.2,7.9c-8.1,22.4-12.9,46.1-12.9,70.9c0,71.9,37,126.3,78,163.1c1.3,1.2,5.8,5.1,5.8,5.1c2,1.7,2.7,5.2,1,9.5
				c-0.6,1.5-13.7,32.8-13.7,32.8c-5.3,12.8,0.8,27.6,13.6,32.9l51.6,21.4c12.8,5.3,27.6-0.8,32.9-13.6c0,0,9.3-22,12.1-29.1
				c1.2-2.9,3-3.8,5.6-3.2c0,0,0,0,2,0.4c16,3.4,42.7,6.2,61.8,6.6c1.8,0,5.5,0,5.5,0c15.4,0,38.4-1.4,51.6-3.5
				c2.3-0.4,2.3-0.4,2.3-0.4c3.3-0.7,5.1,0.7,5.9,2.6c0.8,1.9,11.3,27,11.3,27c5.3,12.8,20.1,18.9,32.9,13.6l51.6-21.4
				c12.8-5.3,18.9-20.1,13.6-32.9c0,0-9.2-21.8-11.4-27.2c-1.1-2.8,0.4-5.1,1.8-6.1c0,0,0,0,0,0c0.1-0.1,0.4-0.3,1.6-1.2
				c11.2-8.5,27.6-22.7,39.4-35.8c2.7-3,5.2-6,7.3-8.8c20.2-26.7,29.8-55.3,57.9-55.3h20.5c3.2,0,6.8,0,8.1-0.1c0,0,0,0,1.1-0.2
				c7.2-1.3,12.8-6.9,14.3-14c0.2-1.2,0.2-1.2,0.2-1.2c0.1-1.3,0.1-3.2,0.1-4c0-0.9,0-4.2,0-7.4v-89.6
				C720.1,411.4,720.1,408.2,720,407.4z M149.4,318.9c-8.7,4.6-15.7-0.4-17.3-7c-2.2-9.1,1.9-19.8,11.4-22.4
				c8.8-2.4,17.3,3.8,16.9,13C160,310.1,154.8,316.1,149.4,318.9z"/>
			<path fill="#D2DF84" d="M571.8,381.8c0,10,8.1,18,18.1,18c10,0,18-8.1,18-18c0-10-8.1-18-18-18
				C579.9,363.7,571.8,371.8,571.8,381.8z"/>
			<g>
				<path fill="#216F33" d="M301.5,280.7c-1.1-3.4,0.6-7.3,3.9-8.7c0,0,3.1-1.4,7.8-3.2c30.7-11.9,64-18.1,97.5-18.1
					c2.7,0,5.3,0,8,0.1c8.8,0.3,17.6,0.9,26.3,2c3.7,0.5,4.5,0.6,4.5,0.6c3.5,0.6,6.2,3.5,5.9,6.5c-0.3,3-0.8,8.2-1.1,11.4
					c-0.3,3.2-3.4,5.5-6.9,5c0,0-17.4-2.3-29.4-2.7c-2.4-0.1-4.9-0.1-7.3-0.1c-30.6,0-61.1,5.7-89.1,16.5c-5,1.9-8.9,3.7-8.9,3.7
					c-3.2,1.5-6.8-0.1-7.9-3.5L301.5,280.7z"/>
			</g>
			<g>
				<path fill="#FBB814" d="M401.7,139.5c-39.7-16.4-85.2,2.4-101.6,42.1c-12.5,30.3-4.5,64,17.6,85.5c6.8,6.7,15,12.2,24.3,16.1
					c22.1-6.3,45.3-9.6,68.6-9.6c2.4,0,4.9,0,7.3,0.1c0.2,0,0.4,0,0.5,0c7.7-5.8,14.5-13,19.7-21.6c2.1-3.5,4-7.1,5.6-11
					C460.3,201.4,441.4,155.9,401.7,139.5z"/>
			</g>
			<g>
				<path fill="#FFE680" d="M397.6,149.5c-8.2-3.4-16.8-5.1-25.6-5.1c-27.2,0-51.5,16.2-61.9,41.3c-6.8,16.5-6.8,34.7,0,51.2
					c4.3,10.3,10.9,19.2,19.3,26.1c5,4.1,10.7,7.5,16.9,10.1c5.8,2.4,11.9,4,18.1,4.7c10.2-1.9,20.6-3.2,31-3.8
					c12.1-4.5,22.6-12.5,30.4-22.9c3.2-4.3,5.9-9,8-14.2C447.9,202.8,431.7,163.6,397.6,149.5z M424.3,233
					c-2.8,6.7-6.7,12.7-11.6,17.7c-10.5,10.9-25.1,17.3-40.8,17.3c-7.4,0-14.7-1.5-21.7-4.3c-2.9-1.2-5.5-2.6-8.1-4.2
					c-10-6.2-17.9-15.3-22.5-26.4c-5.8-14-5.8-29.4,0-43.4c8.8-21.3,29.4-35,52.4-35c7.5,0,14.7,1.4,21.7,4.3
					C422.5,170.9,436.3,204.1,424.3,233z"/>
			</g>
			<g>
				<g>
					<path fill="#FFE680" d="M351.6,217.5c-2.6,7.8,0.6,15.9,8.9,19.3c7.5,3.1,15.6,0.5,18.9-7.4c3.6-8.8-1-15.9-8.3-18.9
						c-5-2.1-10.2-1.8-13.9,0l-10.6-9.7l23.7-32.3l39.1,16.2l-4.8,11.6l-30.1-12.5L362.6,200c4.4-1.9,10.6-1.4,15.7,0.7
						c14.2,5.9,20.8,18.9,14.6,33.9c-5.6,13.4-20.5,20.4-37.1,13.5c-15.4-6.4-21.7-21-18-32.6L351.6,217.5z"/>
				</g>
			</g>
		</g>
	</g>
</g>
</svg>
