<?xml version="1.0" encoding="utf-8"?>
<!-- Generator: Adobe Illustrator 19.2.1, SVG Export Plug-In . SVG Version: 6.00 Build 0)  -->
<svg version="1.1" id="Lager_1" xmlns="http://www.w3.org/2000/svg" xmlns:xlink="http://www.w3.org/1999/xlink" x="0px" y="0px"
	 viewBox="0 0 800 800" enable-background="new 0 0 800 800" xml:space="preserve">
<g id="Lager_3">
	<g>
		<g>
			<path fill="#FBB814" d="M202.9,218.4c-1.6,0.8-3,1.9-3.9,3.1l-90.5,127.3L18,476.2c-1.7,2.3-3,6.6-3,9.5v219.9
				c0,2.9,2.4,5.2,5.2,5.2H384c1.4,0,3.3,0,5.2,0V480.5L202.9,218.4z"/>
			<path fill="#FFFFFF" d="M118.1,631.8c0,1.3-1,2.3-2.3,2.3H86.1c-1.3,0-2.3-1-2.3-2.3v-29.6c0-1.3,1-2.3,2.3-2.3h29.6
				c1.3,0,2.3,1.1,2.3,2.3V631.8z"/>
			<path fill="#FFFFFF" d="M118.1,582.1c0,1.3-1,2.3-2.3,2.3H86.1c-1.3,0-2.3-1-2.3-2.3v-29.6c0-1.3,1-2.3,2.3-2.3h29.6
				c1.3,0,2.3,1,2.3,2.3V582.1z"/>
			<path fill="#FFFFFF" d="M167.8,631.8c0,1.3-1,2.3-2.3,2.3h-29.6c-1.3,0-2.3-1-2.3-2.3v-29.6c0-1.3,1-2.3,2.3-2.3h29.6
				c1.3,0,2.3,1.1,2.3,2.3V631.8z"/>
			<path fill="#FFFFFF" d="M167.8,582.1c0,1.3-1,2.3-2.3,2.3h-29.6c-1.3,0-2.3-1-2.3-2.3v-29.6c0-1.3,1-2.3,2.3-2.3h29.6
				c1.3,0,2.3,1,2.3,2.3V582.1z"/>
			<path fill="#FFFFFF" d="M194.4,482c0,1.3-1,2.3-2.3,2.3h-29.6c-1.3,0-2.3-1-2.3-2.3v-29.6c0-1.3,1-2.3,2.3-2.3h29.6
				c1.3,0,2.3,1,2.3,2.3V482z"/>
			<path fill="#FFFFFF" d="M194.4,432.3c0,1.3-1,2.3-2.3,2.3h-29.6c-1.3,0-2.3-1-2.3-2.3v-29.6c0-1.3,1-2.3,2.3-2.3h29.6
				c1.3,0,2.3,1,2.3,2.3V432.3z"/>
			<path fill="#FFFFFF" d="M209.8,402.7c0-1.3,1-2.3,2.3-2.3h29.6c1.3,0,2.3,1,2.3,2.3v29.6c0,1.3-1,2.3-2.3,2.3h-29.6
				c-1.3,0-2.3-1-2.3-2.3V402.7z"/>
			<path fill="#FFFFFF" d="M209.8,482v-29.6c0-1.3,1-2.3,2.3-2.3h29.6c1.3,0,2.3,1,2.3,2.3V482c0,1.3-1,2.3-2.3,2.3h-29.6
				C210.9,484.3,209.8,483.2,209.8,482z"/>
			<path fill="#FFFFFF" d="M270.7,631.8c0,1.3-1,2.3-2.3,2.3h-29.6c-1.3,0-2.3-1-2.3-2.3v-29.6c0-1.3,1-2.3,2.3-2.3h29.6
				c1.3,0,2.3,1.1,2.3,2.3V631.8z"/>
			<path fill="#FFFFFF" d="M270.7,582.1c0,1.3-1,2.3-2.3,2.3h-29.6c-1.3,0-2.3-1-2.3-2.3v-29.6c0-1.3,1-2.3,2.3-2.3h29.6
				c1.3,0,2.3,1,2.3,2.3V582.1z"/>
			<path fill="#FFFFFF" d="M320.4,631.8c0,1.3-1,2.3-2.3,2.3h-29.6c-1.3,0-2.3-1-2.3-2.3v-29.6c0-1.3,1-2.3,2.3-2.3h29.6
				c1.3,0,2.3,1.1,2.3,2.3V631.8z"/>
			<path fill="#FFFFFF" d="M320.4,582.1c0,1.3-1,2.3-2.3,2.3h-29.6c-1.3,0-2.3-1-2.3-2.3v-29.6c0-1.3,1-2.3,2.3-2.3h29.6
				c1.3,0,2.3,1,2.3,2.3V582.1z"/>
		</g>
		<g>
			<path fill="#9A4A17" d="M488.3,480.5c2.9,0,6.6-1.9,8.3-4.3l87.5-123.1c1.7-2.4,4.4-2.4,6.1,0l87.5,123.1
				c1.7,2.3,5.4,4.3,8.3,4.3h39.3H784c-0.5-1.6-1.2-3.2-2-4.3l-90.5-127.4l-90.5-127.3c-1.7-2.3-5.4-4.3-8.3-4.3H207.3
				c-1.4,0-2.9,0.5-4.4,1.2l186.3,262.1h64.9H488.3z"/>
		</g>
		<g>
			<path fill="#FFE680" d="M784,480.5h-58.8h-39.3c-2.9,0-6.6-1.9-8.3-4.3l-87.5-123.1c-1.7-2.4-4.4-2.4-6.1,0l-87.5,123.1
				c-1.7,2.3-5.4,4.3-8.3,4.3h-34.2h-64.9v230.3c1.9,0,3.8,0,5.2,0h385.3c2.9,0,5.2-2.4,5.2-5.2V485.7
				C785,484.2,784.6,482.3,784,480.5z"/>
			<path fill="#FFFFFF" d="M503.1,631.8c0,1.3-1,2.3-2.3,2.3h-29.6c-1.3,0-2.3-1-2.3-2.3v-29.6c0-1.3,1-2.3,2.3-2.3h29.6
				c1.3,0,2.3,1.1,2.3,2.3V631.8z"/>
			<path fill="#FFFFFF" d="M503.1,582.1c0,1.3-1,2.3-2.3,2.3h-29.6c-1.3,0-2.3-1-2.3-2.3v-29.6c0-1.3,1-2.3,2.3-2.3h29.6
				c1.3,0,2.3,1,2.3,2.3V582.1z"/>
			<path fill="#FFFFFF" d="M552.8,631.8c0,1.3-1,2.3-2.3,2.3h-29.6c-1.3,0-2.3-1-2.3-2.3v-29.6c0-1.3,1-2.3,2.3-2.3h29.6
				c1.3,0,2.3,1.1,2.3,2.3V631.8z"/>
			<path fill="#FFFFFF" d="M552.8,582.1c0,1.3-1,2.3-2.3,2.3h-29.6c-1.3,0-2.3-1-2.3-2.3v-29.6c0-1.3,1-2.3,2.3-2.3h29.6
				c1.3,0,2.3,1,2.3,2.3V582.1z"/>
			<path fill="#FFFFFF" d="M655.7,631.8c0,1.3-1,2.3-2.3,2.3h-29.6c-1.3,0-2.3-1-2.3-2.3v-29.6c0-1.3,1-2.3,2.3-2.3h29.6
				c1.3,0,2.3,1.1,2.3,2.3V631.8z"/>
			<path fill="#FFFFFF" d="M655.7,582.1c0,1.3-1,2.3-2.3,2.3h-29.6c-1.3,0-2.3-1-2.3-2.3v-29.6c0-1.3,1-2.3,2.3-2.3h29.6
				c1.3,0,2.3,1,2.3,2.3V582.1z"/>
			<path fill="#FFFFFF" d="M705.4,631.8c0,1.3-1,2.3-2.3,2.3h-29.6c-1.3,0-2.3-1-2.3-2.3v-29.6c0-1.3,1-2.3,2.3-2.3h29.6
				c1.3,0,2.3,1.1,2.3,2.3V631.8z"/>
			<path fill="#FFFFFF" d="M705.4,582.1c0,1.3-1,2.3-2.3,2.3h-29.6c-1.3,0-2.3-1-2.3-2.3v-29.6c0-1.3,1-2.3,2.3-2.3h29.6
				c1.3,0,2.3,1,2.3,2.3V582.1z"/>
		</g>
	</g>
</g>
</svg>
